<?xml version="1.0" encoding="utf-8"?>
<!-- Generator: Adobe Illustrator 15.0.0, SVG Export Plug-In . SVG Version: 6.00 Build 0)  -->
<!DOCTYPE svg PUBLIC "-//W3C//DTD SVG 1.1//EN" "http://www.w3.org/Graphics/SVG/1.1/DTD/svg11.dtd">
<svg version="1.1" id="Layer_1" xmlns="http://www.w3.org/2000/svg" xmlns:xlink="http://www.w3.org/1999/xlink" x="0px" y="0px"
	 width="612px" height="205.667px" viewBox="0 0 612 205.667" enable-background="new 0 0 612 205.667" xml:space="preserve">
<path fill="#FFFFFF" d="M82.917,38.637c-14.943,26.079-5.919,59.33,20.162,74.274c26.077,14.941,59.332,5.917,74.275-20.161
	c14.943-26.079,5.916-59.335-20.161-74.277C131.112,3.529,97.859,12.559,82.917,38.637z M164.607,93.768
	c-12.046,21.021-38.852,28.299-59.873,16.252C83.711,97.974,76.434,71.167,88.479,50.145c12.045-21.021,38.854-28.301,59.878-16.253
	C169.377,45.937,176.653,72.746,164.607,93.768z"/>
<path fill="#FFFFFF" d="M183.187,127.583c-7.875-29.008-37.773-46.137-66.781-38.263c-29.006,7.873-46.139,37.769-38.265,66.776
	c7.874,29.006,37.775,46.14,66.777,38.266C173.927,186.488,191.059,156.589,183.187,127.583z M86.436,146.369
	c-6.35-23.386,7.461-47.486,30.841-53.833c23.385-6.346,47.485,7.462,53.833,30.847c6.347,23.381-7.461,47.483-30.846,53.833
	C116.883,183.562,92.782,169.749,86.436,146.369z"/>
<path fill="#FFFFFF" d="M78.43,156.259c29.004-7.873,46.137-37.77,38.263-66.779c-7.874-29.003-37.771-46.137-66.777-38.264
	C20.91,59.093,3.777,88.991,11.648,117.996C19.525,147.003,49.423,164.129,78.43,156.259z M59.643,59.507
	c23.387-6.349,47.489,7.467,53.836,30.848c6.346,23.382-7.462,47.485-30.847,53.832c-23.38,6.349-47.486-7.461-53.833-30.848
	C22.453,89.958,36.261,65.855,59.643,59.507z"/>
<g>
	<path fill="#FFFFFF" d="M448.542,193.126c-1.387,0.668-4.675,1.49-8.837,1.49c-11.971,0-18.136-7.501-18.136-17.366
		c0-11.816,8.426-18.341,18.907-18.341c4.059,0,7.141,0.771,8.528,1.542l-1.645,6.165c-1.541-0.668-3.75-1.284-6.576-1.284
		c-6.165,0-10.994,3.75-10.994,11.457c0,6.936,4.11,11.303,11.046,11.303c2.414,0,4.983-0.462,6.576-1.13L448.542,193.126z"/>
	<path fill="#FFFFFF" d="M457.738,159.423v13.306h12.896v-13.306h7.81v34.627h-7.81v-14.488h-12.896v14.488h-7.809v-34.627H457.738z
		"/>
	<path fill="#FFFFFF" d="M489.233,159.423v19.882c0,6.011,2.312,9.042,6.268,9.042c4.11,0,6.371-2.877,6.371-9.042v-19.882h7.809
		v19.42c0,10.687-5.395,15.773-14.437,15.773c-8.733,0-13.82-4.881-13.82-15.875v-19.317H489.233z"/>
	<path fill="#FFFFFF" d="M512.609,159.886c2.518-0.411,6.217-0.72,10.43-0.72c5.138,0,8.734,0.771,11.2,2.723
		c2.106,1.644,3.236,4.11,3.236,7.295c0,4.367-3.134,7.398-6.113,8.477v0.154c2.414,0.976,3.75,3.237,4.623,6.422
		c1.079,3.956,2.106,8.477,2.774,9.813h-8.015c-0.514-1.027-1.387-3.802-2.363-8.066c-0.976-4.367-2.466-5.498-5.702-5.549h-2.313
		v13.615h-7.758V159.886z M520.367,174.785h3.083c3.904,0,6.217-1.952,6.217-4.983c0-3.134-2.158-4.778-5.755-4.778
		c-1.9,0-2.979,0.103-3.545,0.257V174.785z"/>
	<path fill="#FFFFFF" d="M564.397,193.126c-1.387,0.668-4.675,1.49-8.837,1.49c-11.971,0-18.136-7.501-18.136-17.366
		c0-11.816,8.426-18.341,18.907-18.341c4.059,0,7.141,0.771,8.528,1.542l-1.645,6.165c-1.541-0.668-3.75-1.284-6.576-1.284
		c-6.165,0-10.994,3.75-10.994,11.457c0,6.936,4.11,11.303,11.046,11.303c2.414,0,4.983-0.462,6.576-1.13L564.397,193.126z"/>
	<path fill="#FFFFFF" d="M573.594,159.423v13.306h12.896v-13.306h7.81v34.627h-7.81v-14.488h-12.896v14.488h-7.809v-34.627H573.594z
		"/>
</g>
<g>
	<path fill="#FFFFFF" d="M226.983,54.638v54.924c0,16.604,6.387,24.978,17.314,24.978c11.354,0,17.598-7.948,17.598-24.978V54.638
		h21.572v53.646c0,29.52-14.902,43.57-39.88,43.57c-24.127,0-38.177-13.482-38.177-43.854V54.638H226.983z"/>
	<path fill="#FFFFFF" d="M295.103,150.293V54.638h25.263l19.868,35.055c5.678,10.076,11.212,21.998,15.612,32.784h0.283
		c-1.277-12.631-1.703-25.546-1.703-40.022V54.638h19.869v95.655h-22.707l-20.437-36.9c-5.678-10.218-12.063-22.565-16.605-33.777
		h-0.567c0.709,12.773,0.993,26.256,0.993,41.867v28.81H295.103z"/>
	<path fill="#FFFFFF" d="M407.644,54.638v95.655h-21.572V54.638H407.644z"/>
	<path fill="#FFFFFF" d="M506.845,101.472c0,31.507-18.876,50.382-46.977,50.382c-28.242,0-44.989-21.43-44.989-48.821
		c0-28.668,18.45-50.098,46.551-50.098C490.808,52.935,506.845,74.933,506.845,101.472z M437.729,102.607
		c0,18.876,8.8,32.075,23.275,32.075c14.618,0,22.991-13.909,22.991-32.5c0-17.315-8.089-32.075-22.991-32.075
		C446.244,70.107,437.729,84.016,437.729,102.607z"/>
	<path fill="#FFFFFF" d="M513.939,150.293V54.638h25.262l19.869,35.055c5.677,10.076,11.212,21.998,15.611,32.784h0.284
		c-1.277-12.631-1.703-25.546-1.703-40.022V54.638h19.869v95.655h-22.708l-20.437-36.9c-5.677-10.218-12.063-22.565-16.604-33.777
		h-0.568c0.71,12.773,0.994,26.256,0.994,41.867v28.81H513.939z"/>
</g>
</svg>
